<svg width="52" height="52" viewBox="0 0 44 44" fill="none" xmlns="http://www.w3.org/2000/svg">
<rect width="44" height="44" fill="#C4C4C4" fill-opacity="0.01"/>
<circle cx="22" cy="22" r="22" fill="#AF52DE"/>
<g clip-path="url(#clip0)">
<path fill-rule="evenodd" clip-rule="evenodd" d="M13.5 17.1C13.5 16.1452 13.881 15.2295 14.5591 14.5544C15.2373 13.8793 16.157 13.5 17.1161 13.5H29.1696C29.3935 13.5 29.6129 13.5621 29.8033 13.6792C29.9938 13.7964 30.1476 13.964 30.2477 14.1633C30.3479 14.3627 30.3902 14.5858 30.3701 14.8078C30.35 15.0297 30.2682 15.2417 30.1339 15.42L27.0603 19.5L30.1339 23.58C30.2682 23.7583 30.35 23.9703 30.3701 24.1922C30.3902 24.4142 30.3479 24.6373 30.2477 24.8367C30.1476 25.036 29.9938 25.2036 29.8033 25.3208C29.6129 25.4379 29.3935 25.5 29.1696 25.5H17.1161C16.7964 25.5 16.4898 25.6264 16.2638 25.8515C16.0377 26.0765 15.9107 26.3817 15.9107 26.7V30.3C15.9107 30.6183 15.7837 30.9235 15.5577 31.1485C15.3316 31.3736 15.025 31.5 14.7054 31.5C14.3857 31.5 14.0791 31.3736 13.853 31.1485C13.627 30.9235 13.5 30.6183 13.5 30.3V17.1Z" fill="white"/>
</g>
<defs>
<clipPath id="clip0">
<rect width="18" height="18" fill="white" transform="translate(13.5 13.5)"/>
</clipPath>
</defs>
</svg>
